<svg id="ic-iot" xmlns="http://www.w3.org/2000/svg" width="45" height="45.032" viewBox="0 0 45 45.032">
  <metadata><?xpacket begin="﻿" id="W5M0MpCehiHzreSzNTczkc9d"?>
<x:xmpmeta xmlns:x="adobe:ns:meta/" x:xmptk="Adobe XMP Core 5.6-c138 79.159824, 2016/09/14-01:09:01        ">
   <rdf:RDF xmlns:rdf="http://www.w3.org/1999/02/22-rdf-syntax-ns#">
      <rdf:Description rdf:about=""/>
   </rdf:RDF>
</x:xmpmeta>
                                                                                                    
                                                                                                    
                                                                                                    
                                                                                                    
                                                                                                    
                                                                                                    
                                                                                                    
                                                                                                    
                                                                                                    
                                                                                                    
                                                                                                    
                                                                                                    
                                                                                                    
                                                                                                    
                                                                                                    
                                                                                                    
                                                                                                    
                                                                                                    
                                                                                                    
                                                                                                    
                           
<?xpacket end="w"?></metadata>
<defs>
    <style>
      .cls-1, .cls-2 {
        fill: #15ffff;
        fill-rule: evenodd;
      }

      .cls-1 {
        opacity: 0.2;
      }

      .cls-2 {
        opacity: 0.7;
      }
    </style>
  </defs>
  <path id="ic-iot_-_back_color" data-name="ic-iot - back color" class="cls-1" d="M1317.07,374.953l-17.66-13.443a2.331,2.331,0,0,0-2.82,0l-17.66,13.443a2.39,2.39,0,0,0-.93,1.886V398.7a2.354,2.354,0,0,0,2.34,2.363h35.32A2.354,2.354,0,0,0,1318,398.7v-21.86A2.39,2.39,0,0,0,1317.07,374.953Z" transform="translate(-1278 -361.031)"/>
  <path id="ic-iot-2" data-name="ic-iot" class="cls-2" d="M1322.07,379.953l-17.66-13.443a2.331,2.331,0,0,0-2.82,0l-17.66,13.443a2.39,2.39,0,0,0-.93,1.886V403.7a2.354,2.354,0,0,0,2.34,2.363h35.32A2.354,2.354,0,0,0,1323,403.7v-21.86A2.39,2.39,0,0,0,1322.07,379.953Zm-1.41,23.746h-35.32v-21.86L1303,368.4l17.66,13.444V403.7Zm-8.24-16.624a13.245,13.245,0,0,0-18.84,0,1.184,1.184,0,0,0,0,1.671,1.156,1.156,0,0,0,1.65,0,10.92,10.92,0,0,1,15.54,0,1.156,1.156,0,0,0,1.65,0A1.184,1.184,0,0,0,1312.42,387.075Zm-3.3,3.734a8.409,8.409,0,0,0-12.24,0,1.193,1.193,0,0,0,.04,1.67,1.157,1.157,0,0,0,1.65-.034,6.07,6.07,0,0,1,8.85,0,1.169,1.169,0,0,0,1.66.034A1.193,1.193,0,0,0,1309.12,390.809Zm-3.25,3.824a3.582,3.582,0,0,0-5.74,0,1.185,1.185,0,0,0,.22,1.656,1.163,1.163,0,0,0,1.64-.222,1.255,1.255,0,0,1,2.02,0,1.162,1.162,0,0,0,1.64.222A1.2,1.2,0,0,0,1305.87,394.633Z" transform="translate(-1278 -361.031)"/>
</svg>
