<svg id="ic-mob" xmlns="http://www.w3.org/2000/svg" width="24" height="45" viewBox="0 0 24 45">
  <metadata><?xpacket begin="﻿" id="W5M0MpCehiHzreSzNTczkc9d"?>
<x:xmpmeta xmlns:x="adobe:ns:meta/" x:xmptk="Adobe XMP Core 5.6-c138 79.159824, 2016/09/14-01:09:01        ">
   <rdf:RDF xmlns:rdf="http://www.w3.org/1999/02/22-rdf-syntax-ns#">
      <rdf:Description rdf:about=""/>
   </rdf:RDF>
</x:xmpmeta>
                                                                                                    
                                                                                                    
                                                                                                    
                                                                                                    
                                                                                                    
                                                                                                    
                                                                                                    
                                                                                                    
                                                                                                    
                                                                                                    
                                                                                                    
                                                                                                    
                                                                                                    
                                                                                                    
                                                                                                    
                                                                                                    
                                                                                                    
                                                                                                    
                                                                                                    
                                                                                                    
                           
<?xpacket end="w"?></metadata>
<defs>
    <style>
      .cls-1, .cls-2 {
        fill: #15ffff;
      }

      .cls-1 {
        opacity: 0.2;
      }

      .cls-2 {
        fill-rule: evenodd;
        opacity: 0.7;
      }
    </style>
  </defs>
  <rect id="icon-mob_-_back_color" data-name="icon-mob - back color" class="cls-1" width="20" height="40" rx="2.325" ry="2.325"/>
  <path id="icon-mob" class="cls-2" d="M910.08,366H894.732a2.541,2.541,0,0,0-2.325,2.7v34.6a2.543,2.543,0,0,0,2.325,2.7H910.08a2.543,2.543,0,0,0,2.326-2.7V368.7A2.541,2.541,0,0,0,910.08,366Zm-10.129,1.947h4.91a0.331,0.331,0,0,1,0,.654h-4.91A0.331,0.331,0,0,1,899.951,367.946Zm2.455,36.7a1.366,1.366,0,1,1,1.162-1.352A1.268,1.268,0,0,1,902.406,404.648Zm8.4-3.315H894.135V370H910.8v31.334Z" transform="translate(-888.406 -361)"/>
</svg>
