<svg id="ic-web" xmlns="http://www.w3.org/2000/svg" width="52" height="45" viewBox="0 0 52 45">
  <metadata><?xpacket begin="﻿" id="W5M0MpCehiHzreSzNTczkc9d"?>
<x:xmpmeta xmlns:x="adobe:ns:meta/" x:xmptk="Adobe XMP Core 5.6-c138 79.159824, 2016/09/14-01:09:01        ">
   <rdf:RDF xmlns:rdf="http://www.w3.org/1999/02/22-rdf-syntax-ns#">
      <rdf:Description rdf:about=""/>
   </rdf:RDF>
</x:xmpmeta>
                                                                                                    
                                                                                                    
                                                                                                    
                                                                                                    
                                                                                                    
                                                                                                    
                                                                                                    
                                                                                                    
                                                                                                    
                                                                                                    
                                                                                                    
                                                                                                    
                                                                                                    
                                                                                                    
                                                                                                    
                                                                                                    
                                                                                                    
                                                                                                    
                                                                                                    
                                                                                                    
                           
<?xpacket end="w"?></metadata>
<defs>
    <style>
      .cls-1, .cls-2 {
        fill: #15ffff;
      }

      .cls-1 {
        opacity: 0.2;
      }

      .cls-2 {
        fill-rule: evenodd;
        opacity: 0.7;
      }
    </style>
  </defs>
  <rect id="ic_web_-_back_color" data-name="ic web - back color" class="cls-1" width="47" height="40" rx="2.165" ry="2.165"/>
  <path id="ic_web" data-name="ic web" class="cls-2" d="M521.835,365h-42.67A2.221,2.221,0,0,0,477,367.266v35.465A2.22,2.22,0,0,0,479.165,405h42.67A2.22,2.22,0,0,0,524,402.731V367.266A2.221,2.221,0,0,0,521.835,365Zm-2.142,1.34a1.493,1.493,0,1,1-1.422,1.491A1.46,1.46,0,0,1,519.693,366.338Zm-4.822,0a1.493,1.493,0,1,1-1.422,1.491A1.46,1.46,0,0,1,514.871,366.338Zm-34.777.67h6.857a0.994,0.994,0,0,1,0,1.975h-6.857A0.994,0.994,0,0,1,480.094,367.008ZM479.014,403V371h42.972v32H479.014Z" transform="translate(-472 -360)"/>
</svg>
