<?xml version="1.0" encoding="utf-8"?>
<!-- Generator: Adobe Illustrator 16.0.0, SVG Export Plug-In . SVG Version: 6.00 Build 0)  -->
<!DOCTYPE svg PUBLIC "-//W3C//DTD SVG 1.1//EN" "http://www.w3.org/Graphics/SVG/1.1/DTD/svg11.dtd">
<svg version="1.1" id="Layer_1" xmlns="http://www.w3.org/2000/svg" xmlns:xlink="http://www.w3.org/1999/xlink" x="0px" y="0px"
	 viewBox="0 0 644 155.8" style="enable-background:new 0 0 644 155.8;" xml:space="preserve">
<style type="text/css">
<![CDATA[
	.st0{fill:none;}
	.st1{fill:#303437;}
	.st2{fill:#0A85B8;}
]]>
</style>
<g>
	<path class="st0" d="M529.1,66.3c-3.3-2.7-7.1-5-11.3-6.6c-4.1-1.6-8.6-2.4-13.2-2.4c-4.6,0-9.1,0.8-13.2,2.4
		c-4.2,1.6-8,3.8-11.3,6.6c-3.3,2.7-6.1,6-8.2,9.8c-1.5,2.6-2.7,5.3-3.6,8.2h72.7c-0.9-2.9-2.1-5.6-3.6-8.2
		C535.2,72.3,532.4,69,529.1,66.3z"/>
	<path class="st0" d="M366.8,68.6c-3.4-3.4-7.5-6.2-12.2-8.1c-4.6-2-9.6-3-14.8-3c-5,0-9.9,1-14.4,2.8c-4.5,1.9-8.5,4.6-11.8,7.9
		c-3.4,3.4-6.2,7.5-8.3,12.2c-2.1,4.6-3.3,9.8-3.4,15.3v1.8c0.1,4.9,1.3,9.7,3.3,14c2.1,4.4,4.9,8.2,8.3,11.5
		c3.4,3.2,7.4,5.8,11.9,7.7c4.5,1.9,9.3,2.8,14.4,2.8c5.2,0,10.2-1,14.8-3c4.6-2,8.7-4.7,12.2-8.2c3.4-3.4,6.2-7.5,8.2-12.1
		c2-4.5,3-9.5,3-14.7c0-5.2-1-10.2-3-14.8C372.9,76.2,370.2,72.1,366.8,68.6z"/>
	<path class="st1" d="M63.2,38.4c-2-2-4.6-3.1-7.6-3.1H43.7V10.6c0-2.9-1-5.5-3-7.5c-2-2-4.6-3.1-7.5-3.1c-2.9,0-5.5,1.1-7.5,3.1
		c-2,2-3,4.6-3,7.5v24.7H10.7c-2.9,0-5.5,1.1-7.6,3.1C1.1,40.4,0,43.1,0,46c0,2.9,1.1,5.5,3.1,7.5c2,2,4.7,3.1,7.6,3.1h11.9v87.3
		c0,2.9,1.1,5.5,3.1,7.5c2,2,4.6,3.1,7.5,3.1c2.9,0,5.5-1.1,7.5-3.1c2-2,3.1-4.6,3.1-7.5V56.6h11.8c2.9,0,5.5-1.1,7.5-3.1
		c2-2,3.1-4.6,3.1-7.5C66.3,43.1,65.2,40.4,63.2,38.4z"/>
	<path class="st1" d="M421.8,0c-2.9,0-5.5,1.1-7.5,3.1c-2,2-3.1,4.6-3.1,7.5v133.3c0,2.9,1.1,5.5,3.1,7.5c2,2,4.6,3.1,7.5,3.1
		c2.9,0,5.5-1.1,7.5-3.1c2-2,3.1-4.6,3.1-7.5V10.6c0-2.9-1.1-5.5-3.1-7.5C427.3,1.1,424.7,0,421.8,0z"/>
	<path class="st1" d="M558.8,71.3c-3.2-7-7.5-13.2-12.9-18.4c-5.3-5.2-11.6-9.4-18.4-12.5c-7-3.1-14.5-4.7-22.3-4.7l-0.1,0
		c-8.4,0.3-16.3,2.1-23.5,5.2c-7.2,3.2-13.6,7.5-18.9,12.7c-5.3,5.3-9.5,11.6-12.5,18.6c-3,7.1-4.6,14.8-4.6,23
		c0,8.4,1.6,16.4,4.7,23.5c3.1,7.2,7.4,13.4,12.8,18.7c5.4,5.2,11.7,9.3,18.8,12.3c7.1,2.9,14.8,4.4,22.9,4.4
		c8.7,0,16.5-1.3,23.3-3.8c6.9-2.6,13.1-6.9,18.5-13c2-2,3-4.6,3-7.5c0-2.9-1.1-5.5-3.1-7.5c-2-2-4.6-3.1-7.5-3.1
		c-2.9,0-5.5,1.1-7.5,3c-3.5,3.4-7.6,6.1-12.1,8c-4.5,1.9-9.4,2.8-14.6,2.8c-4.6,0-9.1-0.8-13.3-2.4c-4.2-1.6-8.1-3.9-11.4-6.7
		c-3.3-2.8-6.1-6.2-8.4-10.1c-1.6-2.7-2.7-5.5-3.6-8.5h85.3c2.7,0,5.2-1,7.5-2.9c1.7-1.5,3.7-4.2,3.2-8.9
		C563.7,85.8,561.9,78.3,558.8,71.3z M468.4,84.3c0.9-2.9,2.1-5.6,3.6-8.2c2.2-3.8,4.9-7.1,8.2-9.8c3.3-2.7,7.1-5,11.3-6.6
		c4.1-1.6,8.6-2.4,13.2-2.4c4.6,0,9.1,0.8,13.2,2.4c4.2,1.6,8,3.8,11.3,6.6c3.3,2.7,6.1,6,8.4,9.8c1.5,2.6,2.7,5.3,3.6,8.2H468.4z"
		/>
	<path class="st1" d="M640.7,38.4c-2.1-2-4.9-3-8.3-3h0c-8.6,0.2-16.7,2-24.1,5.5c-4.7,2.2-9,5-12.8,8.2V46c0-2.9-1.1-5.5-3.1-7.5
		c-2-2-4.6-3.1-7.5-3.1c-2.9,0-5.5,1.1-7.5,3.1c-2,2-3.1,4.6-3.1,7.5v97.9c0,2.9,1.1,5.5,3.1,7.5c2,2,4.6,3.1,7.5,3.1
		c2.9,0,5.5-1.1,7.5-3.1c2-2,3.1-4.6,3.1-7.5V92.9c0.1-4.9,1.2-9.6,3.2-13.9c2-4.4,4.8-8.2,8.1-11.5c3.3-3.2,7.2-5.9,11.6-7.9
		c4.3-2,9.1-3,14.1-3.2c3.4,0,6.1-1,8.3-3c2.1-2,3.3-4.7,3.3-7.6C644,43,642.8,40.4,640.7,38.4z"/>
	<path class="st2" d="M205.3,30.8c-12.1,0-23.3,3.5-32.9,9.4c5.8,4.6,11,13,13.2,16.5c5.9-3.2,12.5-5.1,19.6-5.1
		c22.9,0,41.6,18.7,41.6,41.6c0,22.9-18.7,41.6-41.6,41.6c-22.5,0-40.9-18-41.6-40.3c-2.9-18.9-7-22.2-14.3-28.4
		c-1,1.9-2.4,4.7-2.9,5.9c-2.4,6.6-3.8,13.7-3.8,21.2c0,34.5,28,62.5,62.5,62.5c34.5,0,62.5-28.1,62.5-62.5
		C267.8,58.8,239.8,30.8,205.3,30.8z"/>
	<path class="st2" d="M145.6,130.9c-5.4,2.6-11.4,4-17.7,4c-22.9,0-41.6-18.7-41.6-41.6c0-22.9,18.7-41.6,41.6-41.6
		c22.9,0,41.6,18.7,41.6,41.6c0,0.1,0,0.3,0,0.4c1.2,10.6,6.8,20,14.9,26.2c0.2-0.4,0.4-0.8,0.4-0.8c3.6-7.9,5.6-16.6,5.6-25.8
		c0-34.5-28-62.5-62.5-62.5c-34.5,0-62.5,28.1-62.5,62.5c0,34.5,28.1,62.5,62.5,62.5c11.6,0,22.5-3.2,31.8-8.7
		C155,143.5,149.7,138.2,145.6,130.9z"/>
	<path class="st1" d="M381.5,53.7c-5.4-5.4-11.7-9.7-18.7-12.8c-7.1-3.2-14.7-4.8-22.6-4.8l-0.1,0c-9.2,0.3-17.6,2.7-25.2,7
		c-4.8,2.7-9.1,5.8-13.1,9.3V10.6c0-2.9-1.1-5.5-3.1-7.5c-2-2-4.6-3.1-7.5-3.1c-2.9,0-5.5,1.1-7.5,3.1c-2,2-3.1,4.6-3.1,7.5v133.3
		c0,2.9,1.1,5.5,3.1,7.5c2,2,4.6,3.1,7.5,3.1c2.9,0,5.5-1.1,7.5-3.1c2-2,3.1-4.6,3.1-7.5v-2.6c4,3.3,8.5,6,13.4,8.2
		c7.5,3.3,15.7,5,24.5,5c8.3,0,16.1-1.6,23.3-4.7c7.2-3.1,13.5-7.4,18.8-12.8c5.3-5.4,9.5-11.7,12.6-18.7c3.1-7.1,4.7-14.8,4.7-22.7
		c0-8.1-1.6-15.9-4.8-23.1C391.2,65.4,386.8,59,381.5,53.7z M374.9,110.3c-2,4.6-4.7,8.6-8.2,12.1c-3.4,3.4-7.5,6.2-12.2,8.2
		c-4.6,2-9.6,3-14.8,3c-5.1,0-9.9-1-14.4-2.8c-4.5-1.9-8.5-4.5-11.9-7.7c-3.4-3.2-6.2-7.1-8.3-11.5c-2.1-4.3-3.2-9-3.3-14v-1.8
		c0.1-5.5,1.3-10.6,3.4-15.3c2.1-4.7,4.9-8.8,8.3-12.2c3.4-3.4,7.3-6,11.8-7.9c4.5-1.9,9.3-2.8,14.4-2.8c5.2,0,10.2,1,14.8,3
		c4.6,2,8.7,4.7,12.2,8.1c3.4,3.4,6.2,7.5,8.2,12.2c2,4.6,3,9.6,3,14.8C377.9,100.8,376.9,105.8,374.9,110.3z"/>
</g>
</svg>
